<svg xmlns="http://www.w3.org/2000/svg" xmlns:xlink="http://www.w3.org/1999/xlink" width="1024" zoomAndPan="magnify" viewBox="0 0 768 767.999994" height="1024" preserveAspectRatio="xMidYMid meet" version="1.0"><defs><clipPath id="0124864de9"><path d="M 77 216.574219 L 691 216.574219 L 691 551.074219 L 77 551.074219 Z M 77 216.574219 " clip-rule="nonzero"/></clipPath></defs><path fill="#e6e6e6" d="M 407.824219 221.046875 C 373.785156 221.046875 343.554688 237.324219 324.492188 262.507812 C 308.332031 252.25 289.164062 246.324219 268.601562 246.324219 C 216.691406 246.324219 173.625 284.183594 165.546875 333.773438 C 117.847656 343.40625 81.90625 385.519531 81.90625 436.023438 C 81.90625 493.640625 128.679688 540.34375 186.34375 540.34375 C 209.859375 540.34375 231.5625 532.566406 249.015625 519.460938 C 259.167969 522.75 269.984375 524.542969 281.234375 524.542969 C 292.125 524.542969 302.648438 522.859375 312.519531 519.769531 C 331.035156 536.484375 355.574219 546.671875 382.492188 546.671875 C 409.824219 546.671875 434.71875 536.183594 453.332031 519.007812 C 470.09375 530.472656 490.382812 537.164062 512.230469 537.164062 C 529.570312 537.164062 545.90625 532.949219 560.296875 525.476562 C 567.246094 526.929688 574.441406 527.6875 581.824219 527.6875 C 639.488281 527.6875 686.226562 480.984375 686.226562 423.367188 C 686.226562 365.746094 639.488281 319.042969 581.824219 319.042969 C 581.257812 319.042969 580.691406 319.066406 580.128906 319.078125 C 561.535156 296.566406 533.691406 281.976562 502.402344 281.144531 C 485.746094 245.632812 449.667969 221.046875 407.824219 221.046875 Z M 407.824219 221.046875 " fill-opacity="1" fill-rule="nonzero"/><g clip-path="url(#0124864de9)"><path fill="#000000" d="M 407.710938 216.597656 C 373.636719 216.597656 343.296875 232.390625 323.34375 256.917969 C 307.214844 247.476562 288.515625 241.910156 268.492188 241.910156 C 215.453125 241.910156 171.3125 279.910156 161.699219 330.15625 C 113.417969 341.292969 77.398438 384.460938 77.398438 436.035156 C 77.398438 496.046875 126.175781 544.785156 186.234375 544.785156 C 209.910156 544.785156 231.832031 537.160156 249.699219 524.316406 C 259.671875 527.324219 270.214844 528.984375 281.15625 528.984375 C 291.65625 528.984375 301.789062 527.4375 311.402344 524.660156 C 330.46875 541.089844 355.277344 551.113281 382.414062 551.113281 C 409.652344 551.113281 434.507812 540.996094 453.597656 524.453125 C 470.507812 535.265625 490.566406 541.605469 512.117188 541.605469 C 529.628906 541.605469 546.171875 537.410156 560.839844 530.054688 C 567.621094 531.371094 574.59375 532.128906 581.742188 532.128906 C 641.800781 532.128906 690.578125 483.390625 690.578125 423.378906 C 690.578125 363.4375 641.914062 314.742188 581.949219 314.628906 C 563.128906 292.777344 535.738281 278.5 505.019531 276.9375 C 487.167969 241.222656 450.332031 216.597656 407.710938 216.597656 Z M 407.710938 225.449219 C 447.816406 225.449219 482.363281 249.027344 498.308594 283.023438 C 498.664062 283.785156 499.195312 284.398438 499.898438 284.859375 C 500.605469 285.320312 501.378906 285.5625 502.21875 285.582031 C 532.1875 286.390625 558.824219 300.339844 576.621094 321.890625 C 577.050781 322.414062 577.570312 322.816406 578.183594 323.101562 C 578.796875 323.386719 579.441406 323.527344 580.117188 323.515625 C 580.769531 323.503906 581.3125 323.480469 581.742188 323.480469 C 637.015625 323.480469 681.71875 368.152344 681.71875 423.378906 C 681.71875 478.605469 637.015625 523.277344 581.742188 523.277344 C 574.65625 523.277344 567.738281 522.5625 561.082031 521.167969 C 560.058594 520.945312 559.078125 521.070312 558.140625 521.546875 C 544.367188 528.695312 528.726562 532.75 512.117188 532.75 C 491.167969 532.75 471.769531 526.3125 455.710938 515.324219 C 455.292969 515.042969 454.84375 514.835938 454.359375 514.707031 C 453.875 514.578125 453.386719 514.53125 452.886719 514.570312 C 452.386719 514.609375 451.90625 514.726562 451.445312 514.925781 C 450.988281 515.128906 450.574219 515.398438 450.207031 515.738281 C 432.375 532.195312 408.613281 542.261719 382.414062 542.261719 C 356.617188 542.261719 333.152344 532.507812 315.417969 516.5 C 314.835938 515.976562 314.160156 515.628906 313.394531 515.464844 C 312.628906 515.296875 311.875 515.332031 311.125 515.566406 C 301.667969 518.53125 291.601562 520.128906 281.15625 520.128906 C 270.371094 520.128906 260.015625 518.40625 250.289062 515.253906 C 249.597656 515.03125 248.894531 514.980469 248.179688 515.101562 C 247.464844 515.226562 246.816406 515.507812 246.238281 515.945312 C 229.523438 528.5 208.773438 535.933594 186.234375 535.933594 C 130.960938 535.933594 86.257812 491.261719 86.257812 436.035156 C 86.257812 387.617188 120.65625 347.320312 166.335938 338.109375 C 166.773438 338.019531 167.191406 337.867188 167.582031 337.65625 C 167.976562 337.441406 168.328125 337.171875 168.640625 336.851562 C 168.953125 336.53125 169.210938 336.171875 169.414062 335.773438 C 169.617188 335.371094 169.753906 334.953125 169.828125 334.511719 C 177.566406 287.03125 218.738281 250.761719 268.492188 250.761719 C 288.199219 250.761719 306.519531 256.4375 321.992188 266.253906 C 322.460938 266.554688 322.972656 266.757812 323.519531 266.863281 C 324.066406 266.96875 324.613281 266.972656 325.160156 266.875 C 325.710938 266.777344 326.222656 266.578125 326.695312 266.289062 C 327.167969 265.996094 327.574219 265.625 327.910156 265.183594 C 346.167969 241.050781 375.082031 225.453125 407.710938 225.453125 Z M 407.710938 225.449219 " fill-opacity="1" fill-rule="nonzero"/></g><path fill="#cccccc" d="M 406.273438 235.175781 C 367.226562 235.175781 333.59375 258.902344 318.167969 293.0625 C 318.285156 293.136719 318.394531 293.226562 318.511719 293.304688 C 336.242188 269.191406 364.363281 253.605469 396.03125 253.605469 C 427.792969 253.605469 455.996094 269.300781 473.71875 293.546875 L 472.992188 293.683594 C 476.828125 299.058594 480.152344 304.832031 482.925781 310.9375 C 488.929688 311.105469 494.808594 311.828125 500.503906 313.046875 L 501.023438 313.152344 C 515.03125 316.234375 527.929688 322.363281 539.054688 330.855469 L 538.605469 330.960938 C 544.359375 335.085938 549.605469 339.78125 554.28125 344.894531 C 554.847656 344.886719 555.410156 344.859375 555.976562 344.859375 C 613.742188 344.859375 660.558594 387.128906 660.558594 439.257812 C 660.558594 452.675781 657.460938 465.425781 651.871094 476.984375 C 664.265625 461.472656 671.59375 442.453125 671.59375 421.867188 C 671.59375 369.738281 624.78125 327.46875 567.015625 327.46875 C 566.546875 327.46875 566.066406 327.496094 565.597656 327.503906 C 548.109375 306.578125 522.574219 293.085938 493.929688 292.128906 C 478.3125 258.480469 444.949219 235.175781 406.273438 235.175781 Z M 269.023438 258.550781 C 266.574219 258.511719 264.132812 258.59375 261.652344 258.757812 C 223.714844 261.277344 192.710938 287.332031 180.742188 322.488281 C 195.894531 296.972656 222.148438 279.277344 253.070312 277.226562 C 271.269531 276.015625 288.621094 280.390625 303.558594 288.945312 C 307.1875 283.148438 311.4375 277.785156 316.15625 272.9375 C 302.324219 264.050781 286.152344 258.832031 269.023438 258.550781 Z M 411.453125 291.574219 C 383.917969 291.648438 358.570312 302.75 340.410156 320.933594 C 342.480469 322.417969 344.523438 323.9375 346.464844 325.566406 C 365.980469 311.6875 390.738281 304.660156 416.785156 307.585938 C 471.71875 313.75 511.390625 361.847656 505.410156 415.054688 C 504.664062 421.671875 503.269531 428.082031 501.257812 434.175781 C 506.902344 423.769531 510.621094 412.15625 512.019531 399.734375 C 518 346.53125 478.328125 298.398438 423.394531 292.230469 C 419.386719 291.78125 415.390625 291.5625 411.457031 291.574219 Z M 243.199219 319.480469 C 235.523438 319.484375 227.726562 320.363281 219.910156 322.175781 C 197.246094 327.433594 178.113281 339.765625 164.472656 356.167969 C 165.425781 351.078125 166.816406 346.152344 168.554688 341.367188 C 139.027344 349.066406 114.917969 369.515625 102.871094 396.246094 C 117.105469 377.128906 138.300781 363.199219 162.914062 358.070312 C 149.097656 375.535156 141.347656 397.332031 141.875 420.035156 C 147.875 381.558594 177.453125 348.398438 218.804688 338.808594 C 243.9375 332.980469 268.976562 336.890625 289.78125 348.007812 C 294.667969 345.191406 299.882812 342.765625 305.316406 340.746094 C 288.074219 327.226562 266.230469 319.464844 243.199219 319.480469 Z M 243.199219 319.480469 " fill-opacity="1" fill-rule="nonzero"/></svg>